<?xml version="1.0" encoding="utf-8"?>
<!-- Generator: Adobe Illustrator 24.0.0, SVG Export Plug-In . SVG Version: 6.00 Build 0)  -->
<svg version="1.1" id="Layer_1" xmlns="http://www.w3.org/2000/svg" xmlns:xlink="http://www.w3.org/1999/xlink" x="0px" y="0px"
	 viewBox="0 0 400 300" style="enable-background:new 0 0 400 300;" xml:space="preserve">
<style type="text/css">
	.st0{fill:#2F5A85;}
	.st1{fill:#FFFFFF;}
</style>
<path class="st0" d="M137.9,78.5c0-2.1,0-3.8,0-5.6c0-2.6-0.1-5.3,0-7.9c0.2-4.9,5-7.6,9.2-5.1c9.6,5.8,19.1,11.7,28.6,17.5
	c7.6,4.6,15.2,9.2,22.8,13.8c1.8,1.1,3.6,2.3,5.5,3.3c0.5,0.3,1.5,0.3,2,0c6.9-4.1,13.6-8.3,20.5-12.5c9.3-5.7,18.5-11.3,27.8-16.9
	c2.7-1.6,5.3-3.3,8-4.9c4.8-2.9,9.5-0.4,9.7,5.2c0.1,3.6,0,7.2,0,10.9c0,2.1,0.3,2.3,2.3,1.4c1.8-0.8,3.5-1.5,5.3-2.3
	c4.2-1.8,8.3,0.7,8.5,5.3c0.1,2.4,0,4.8,0,7.2c0,1.8,0.2,1.9,1.9,1.4c2-0.6,4-1.3,6-1.8c4.6-1.2,7.9,1.3,7.9,6c0.1,7.5,0,15,0,22.6
	c0,14.6,0,29.2,0,43.8c0,4.6-1.2,6.1-5.5,7.6c-9.3,3.4-18.5,6.9-27.7,10.4c-7.9,3-15.8,5.9-23.7,8.8c-10.7,4-21.4,8-32.2,12.1
	c-2.7,1-5.4,1.9-8,3c-2.4,1-4.6-0.1-6.7-0.9c-13.2-4.9-26.4-9.9-39.6-14.9c-8-3-16-5.9-24.1-8.9c-8.9-3.3-17.9-6.6-26.8-10
	c-2.9-1.1-4.2-3.1-4.2-6.2c0-22.4,0-44.9,0-67.3c0-4.6,3.6-7.2,8-6c2.1,0.6,4.2,1.3,6.3,1.9c1.2,0.4,1.7,0.1,1.7-1.2
	c-0.1-2.2,0.1-4.5,0-6.7c-0.3-5.1,4.7-8.2,9.1-5.8c1.7,0.9,3.6,1.6,5.4,2.3C136.5,78.2,137,78.3,137.9,78.5z M264.2,68.2
	c-0.8,0.4-1.4,0.6-1.8,0.8c-7,4.2-13.9,8.5-20.9,12.7c-10.4,6.3-20.7,12.7-31.1,19c-1.2,0.7-1.8,1.6-1.7,3
	c0.1,8.4,0.2,16.8,0.2,25.2c0,1.5,0.5,2,2,1.9c7.3-0.1,14.6,0,21.9,0c5.3,0,8.3,4.6,6.2,9.4c-1.1,2.5-2.2,4.9-3.3,7.4
	c-5,10.9-10,21.8-15,32.7c-0.3,0.7-0.5,1.4-0.8,2.1c1-0.3,1.8-0.7,2.6-1.2c3.6-2.6,7.2-5.2,10.8-7.8c9.9-7.1,19.8-14.3,29.8-21.4
	c1-0.7,1.4-1.4,1.4-2.7c0-26.4,0-52.8,0-79.2C264.3,69.8,264.2,69.2,264.2,68.2z M208.7,186.9c0.1,0,0.2,0,0.4,0
	c7.2-15.9,14.4-31.8,21.8-48.1c-1.1,0-1.7,0-2.3,0c-7.1,0-14.2,0-21.2,0c-3,0-5.5-2-6.1-4.8c-0.2-1.2-0.4-2.4-0.4-3.6
	c-0.1-6.4-0.1-12.7-0.1-19.1c0-0.6,0-1.1,0-1.7c-0.1,0-0.3-0.1-0.4-0.1c-6.9,15.4-13.8,30.9-20.8,46.6c1,0,1.6,0,2.2,0
	c6.9,0,13.7,0,20.6,0c3.8,0,6.5,2.7,6.5,6.6c0,7.4,0,14.8,0,22.2C208.7,185.6,208.7,186.3,208.7,186.9z M160.5,172
	c0.1-0.1,0.1-0.2,0.2-0.3c-0.2-0.2-0.3-0.4-0.5-0.5c-6.2-4.5-12.4-9-18.7-13.3c-2.4-1.7-3.6-3.7-3.6-6.7c0.1-20.2,0-40.4,0-60.6
	c0-3.5,0.6-3.3-3.1-4.8c-0.9-0.4-1.8-0.8-2.7-1.2c-0.9-0.4-1.8-0.6-3-1.1c0,1,0,1.7,0,2.4c0,22.5,0,45.1-0.1,67.6
	c0,2.2,0.7,3.2,2.6,4.1c7.4,3.6,14.7,7.3,22.1,11C155.9,169.8,158.2,170.9,160.5,172z M274.8,167.8c0,0.1,0.1,0.2,0.1,0.3
	c0.3-0.1,0.6-0.1,0.9-0.2c6.4-2.4,12.8-4.8,19.3-7.2c1.3-0.5,1.3-1.4,1.3-2.5c0-17.9,0-35.8,0-53.7c0-2.5,0-4.9,0-7.4
	c0-1.2-0.5-1.6-1.6-1.2c-1.3,0.4-2.6,0.9-3.9,1.3c-2.7,0.8-2.7,0.8-2.7,3.7c0,18.5,0,37,0,55.5c0,3.3-1.2,5.5-4.3,6.9
	C280.8,164.6,277.8,166.2,274.8,167.8z"/>
<path class="st0" d="M67.9,241.8c0-5.5,0-11.1,0-16.6c0-1.3,0.4-1.8,1.8-1.8c7.3,0.1,14.7,0,22,0c1.3,0,1.7,0.4,1.7,1.7
	c0,5.3,0.3,4.4-4.4,4.4c-4.1,0-8.2,0-12.3,0c-1.3,0-1.9,0.4-1.8,1.8c0.1,1.9,0.1,3.7,0,5.6c-0.1,1.4,0.6,1.8,1.9,1.8
	c3,0,5.9,0,8.9,0c1.3,0,1.9,0.5,1.8,1.8c-0.1,4.8,0.6,4.2-4.2,4.2c-2.1,0-4.3,0.1-6.4,0c-1.4,0-2,0.4-1.9,1.9c0.1,2,0.1,4.1,0,6.1
	c-0.1,1.4,0.5,1.9,1.8,1.8c4.8,0,9.5,0,14.3,0c2.3,0,2.4,0.1,2.4,2.3c0,4.4,0.3,3.8-3.8,3.8c-6.6,0-13.2,0-19.7,0c-1.5,0-2-0.4-2-2
	C67.9,253,67.9,247.4,67.9,241.8z"/>
<path class="st0" d="M116.6,258c0.2,2.5-1,2.6-2.6,2.6c-4.4-0.1-4.4,0-4.4-4.5c0-10.1,0-20.3,0-30.4c0-2.2,0-2.2,2.3-2.2
	c0.1,0,0.2,0,0.3,0c4.3,0,4.3,0,4.3,4.4c0,2,0,4.1,0,6.1c0,0.4,0.3,0.9,0.4,1.3c0.4-0.2,0.9-0.2,1.1-0.5c3.6-3.3,11.6-2.1,14.3,3.6
	c2.7,5.7,2.7,11.5,0,17.1c-2,4.2-7.1,6.4-11.4,5.1c-0.9-0.3-1.7-0.9-2.6-1.4C117.9,258.8,117.5,258.5,116.6,258z M116.1,246.8
	c0.1,0,0.2,0.1,0.3,0.1c0.2,1.3,0.2,2.6,0.5,3.9c0.6,2.5,2.5,4.1,4.7,4.2c2.3,0.1,3.9-1.2,4.8-3.7c1-3.1,1-6.2-0.3-9.2
	c-0.7-1.7-2-2.9-3.9-3.1c-2-0.2-3.6,0.6-4.3,2.3C117,243,116.7,244.9,116.1,246.8z"/>
<path class="st0" d="M327,242.3c0.7-0.5,1.1-0.8,1.4-1.1c1.8-2,3.5-4,5.2-6.1c1-1.3,2.1-1.9,3.8-1.8c1.7,0.1,3.4,0,5.5,0
	c-0.8,1.1-1.3,1.9-1.9,2.7c-1.5,1.9-2.9,3.8-4.5,5.7c-0.6,0.7-0.7,1.3-0.3,2.2c2.3,4.7,4.5,9.4,6.7,14.1c0.3,0.7,0.5,1.4,0.9,2.4
	c-2.4,0-4.5,0.1-6.6-0.1c-0.4,0-0.8-0.7-1-1.1c-1.5-3.4-2.9-6.8-4.4-10.1c-0.2-0.6-0.7-1.1-1-1.6c-0.5,0.4-1.1,0.8-1.6,1.2
	c-2.6,2.2-2.5,5.3-2.4,8.3c0.1,3.7,0.4,3.4-3.3,3.4c-4.2,0-3.7,0.6-3.7-3.8c0-10.4,0-20.7,0-31.1c0-2.2,0-2.2,2.2-2.2
	c1,0,2.1,0.1,3.1,0c1.4-0.1,1.8,0.5,1.8,1.8c0,5,0,10,0,15C326.8,240.8,326.9,241.4,327,242.3z"/>
<path class="st0" d="M239.1,242.1c1.5-1.7,3-3.4,4.5-5.1c0.1-0.2,0.3-0.3,0.4-0.5c2.4-4.3,6.3-3.1,10.3-3c-0.5,0.8-0.7,1.3-1.1,1.8
	c-1.6,2.1-3.2,4.1-4.9,6.1c-0.8,1-0.9,1.8-0.4,3c2.3,4.8,4.6,9.6,6.9,14.4c0.2,0.5,0.3,1,0.6,1.8c-2.4,0-4.5,0.1-6.6-0.1
	c-0.5,0-1.1-1-1.3-1.7c-1.4-3.1-2.6-6.3-3.9-9.4c-0.3-0.7-0.8-1.2-1.3-1.8c-0.5,0.5-1,0.9-1.5,1.4c-3,2.4-2.5,5.8-2.5,9.1
	c0,2.6,0,2.6-2.5,2.6c-0.9,0-1.8-0.1-2.6,0c-1.5,0.1-1.9-0.5-1.9-1.9c0.1-8.4,0-16.8,0-25.2c0-2.8,0-5.6,0-8.4
	c0-1.3,0.4-1.8,1.7-1.7c0.4,0,0.8,0,1.2,0c4.1,0,4.1,0,4.1,4.2c0,4.2,0,8.3,0,12.5c0,0.6,0.1,1.2,0.2,1.9
	C238.8,242,238.9,242.1,239.1,242.1z"/>
<path class="st0" d="M215.3,248c-0.2,3.7-1.3,8.2-5.8,11c-8.2,5-18.3,0.1-19.3-9.5c-0.4-4.1-0.2-8.1,2.3-11.7
	c3.9-5.5,12.8-6.7,18.1-2.4C213.7,238,215.3,241.9,215.3,248z M197,247.6c0.2,0.9,0.4,2.6,0.9,4.1c0.7,2,2.6,3.2,4.7,3.3
	c2.3,0,3.9-1.1,4.7-3.2c1.2-3.2,1.3-6.6,0-9.8c-1.4-3.3-5.6-4.2-8.2-1.7C197.3,242.1,197.2,244.5,197,247.6z"/>
<path class="st0" d="M162.2,233c6.2,0,10.6,3.5,11.9,9.6c0.9,4.1,0.7,8.2-1.2,12c-2.3,4.6-7.6,7-12.7,6.2c-5.5-0.9-9.6-4.6-10.2-9.9
	c-0.4-2.9-0.4-6,0.1-8.8C151.2,236.3,155.9,233,162.2,233z M167.7,247c-0.2-1.3-0.2-2.5-0.5-3.7c-0.6-2.5-2.6-4.3-4.7-4.4
	c-2.5-0.1-4.6,1.2-5.4,3.7c-0.9,2.8-0.9,5.8,0,8.6c0.8,2.5,2.8,3.8,5.2,3.8c2.3-0.1,4.1-1.5,4.8-4
	C167.5,249.6,167.5,248.2,167.7,247z"/>
<path class="st0" d="M296,242c0-5.4,0-10.8,0-16.1c0-2.5,0-2.5,2.6-2.5c0.9,0,1.8,0.1,2.6,0c1.3-0.1,1.7,0.4,1.7,1.7
	c0,4.9,0,9.9,0,14.8c0,6.1,0,12.3,0,18.4c0,2.1,0,2.2-2.2,2.2c-1,0-2-0.1-3,0c-1.3,0.1-1.7-0.5-1.7-1.7C296,253.2,296,247.6,296,242
	z"/>
<path class="st0" d="M274.6,252.4c2.3,0,3.9,1.6,3.9,3.9c0,2.3-1.7,4.2-3.9,4.2c-2.2,0-3.9-1.8-3.9-4.2
	C270.7,254,272.3,252.4,274.6,252.4z"/>
<path class="st1" d="M264.2,68.2c0.1,1,0.1,1.5,0.1,2.1c0,26.4,0,52.8,0,79.2c0,1.2-0.4,2-1.4,2.7c-10,7.1-19.9,14.2-29.8,21.4
	c-3.6,2.6-7.2,5.2-10.8,7.8c-0.7,0.5-1.5,1-2.6,1.2c0.3-0.7,0.5-1.4,0.8-2.1c5-10.9,10-21.8,15-32.7c1.1-2.4,2.2-4.9,3.3-7.4
	c2.1-4.8-0.9-9.4-6.2-9.4c-7.3,0-14.6,0-21.9,0c-1.5,0-2-0.4-2-1.9c0-8.4-0.1-16.8-0.2-25.2c0-1.5,0.5-2.3,1.7-3
	c10.4-6.3,20.8-12.7,31.1-19c7-4.3,13.9-8.5,20.9-12.7C262.8,68.8,263.3,68.6,264.2,68.2z"/>
<path class="st1" d="M208.7,186.9c0-0.6,0-1.3,0-1.9c0-7.4,0-14.8,0-22.2c0-3.8-2.7-6.5-6.5-6.6c-6.9,0-13.7,0-20.6,0
	c-0.6,0-1.2,0-2.2,0c7-15.7,13.9-31.2,20.8-46.6c0.1,0,0.3,0.1,0.4,0.1c0,0.6,0,1.1,0,1.7c0,6.4,0,12.7,0.1,19.1
	c0,1.2,0.1,2.4,0.4,3.6c0.6,2.8,3.1,4.8,6.1,4.8c7.1,0,14.2,0,21.2,0c0.6,0,1.2,0,2.3,0c-7.4,16.2-14.6,32.2-21.8,48.1
	C208.9,186.9,208.8,186.9,208.7,186.9z"/>
<path class="st1" d="M160.5,172c-2.3-1.1-4.6-2.2-6.9-3.3c-7.4-3.7-14.7-7.4-22.1-11c-1.8-0.9-2.6-1.9-2.6-4.1
	c0.1-22.5,0.1-45.1,0.1-67.6c0-0.7,0-1.4,0-2.4c1.2,0.4,2.1,0.7,3,1.1c0.9,0.4,1.8,0.9,2.7,1.2c3.7,1.4,3.1,1.2,3.1,4.8
	c0,20.2,0,40.4,0,60.6c0,3,1.2,5,3.6,6.7c6.3,4.4,12.5,8.9,18.7,13.3c0.2,0.1,0.3,0.4,0.5,0.5C160.6,171.8,160.6,171.9,160.5,172z"
	/>
<path class="st1" d="M274.8,167.8c3-1.5,6-3.2,9.1-4.6c3-1.4,4.3-3.6,4.3-6.9c-0.1-18.5,0-37,0-55.5c0-2.9,0-2.9,2.7-3.7
	c1.3-0.4,2.6-0.8,3.9-1.3c1.1-0.4,1.6,0,1.6,1.2c0,2.5,0,4.9,0,7.4c0,17.9,0,35.8,0,53.7c0,1.1,0,2-1.3,2.5
	c-6.4,2.4-12.8,4.8-19.3,7.2c-0.3,0.1-0.6,0.2-0.9,0.2C274.9,167.9,274.8,167.9,274.8,167.8z"/>
</svg>
